<svg xmlns="http://www.w3.org/2000/svg" width="13.623" height="24.088" viewBox="0 0 13.623 24.088"><path data-name="Icon material-attach-money" d="M7.333 10.572c-3.038-.79-4.015-1.606-4.015-2.877 0-1.459 1.352-2.476 3.613-2.476 2.382 0 3.265 1.137 3.346 2.81h2.957a5.334 5.334 0 0 0-4.3-5.1V0H4.92v2.891C2.32 3.453.236 5.139.236 7.722c0 3.091 2.556 4.63 6.29 5.527 3.346.8 4.015 1.981 4.015 3.225 0 .923-.656 2.4-3.613 2.4-2.757 0-3.841-1.231-3.988-2.81H0c.161 2.931 2.355 4.577 4.925 5.125v2.9H8.94v-2.878c2.61-.5 4.684-2.007 4.684-4.751-.004-3.801-3.253-5.099-6.291-5.888z" fill="#0b48ae"/></svg>