<svg xmlns="http://www.w3.org/2000/svg" width="22.896" height="18.603" viewBox="0 0 22.896 18.603"><path data-name="Icon awesome-list" d="M3.577 14.31H.715a.715.715 0 0 0-.715.715v2.862a.715.715 0 0 0 .715.715h2.862a.715.715 0 0 0 .715-.715v-2.862a.715.715 0 0 0-.715-.715zm0-14.31H.715A.715.715 0 0 0 0 .715v2.862a.715.715 0 0 0 .715.715h2.862a.715.715 0 0 0 .715-.715V.715A.715.715 0 0 0 3.577 0zm0 7.155H.715A.715.715 0 0 0 0 7.87v2.862a.715.715 0 0 0 .715.715h2.862a.715.715 0 0 0 .715-.715V7.87a.715.715 0 0 0-.715-.715zm18.6 7.87H7.87a.715.715 0 0 0-.715.715v1.431a.715.715 0 0 0 .715.715h14.31a.715.715 0 0 0 .715-.715v-1.43a.715.715 0 0 0-.715-.716zm0-14.31H7.87a.715.715 0 0 0-.715.715v1.432a.715.715 0 0 0 .715.715h14.31a.715.715 0 0 0 .715-.715V1.431a.715.715 0 0 0-.715-.716zm0 7.155H7.87a.715.715 0 0 0-.715.715v1.431a.715.715 0 0 0 .715.715h14.31a.715.715 0 0 0 .715-.715v-1.43a.715.715 0 0 0-.715-.716z" fill="#0b48ae"/></svg>