<svg xmlns="http://www.w3.org/2000/svg" width="19.029" height="27.948" viewBox="0 0 19.029 27.948"><path data-name="Icon metro-flow-cascade" d="M15.461 20.813a3.564 3.564 0 0 0-3.235 2.081H7.285a2.231 2.231 0 0 1-2.23-2.23V14.94a5.149 5.149 0 0 0 2.23.52h4.942a3.568 3.568 0 1 0 0-2.973H7.285a2.231 2.231 0 0 1-2.23-2.23V6.803a3.568 3.568 0 1 0-2.973 0v13.861a5.2 5.2 0 0 0 5.2 5.2h4.942a3.565 3.565 0 1 0 3.235-5.055zm0-8.9a2.059 2.059 0 1 1-2.059 2.059 2.058 2.058 0 0 1 2.059-2.059zM3.568 1.509a2.059 2.059 0 1 1-2.057 2.059 2.058 2.058 0 0 1 2.057-2.059zm11.893 24.93a2.059 2.059 0 1 1 2.057-2.059 2.059 2.059 0 0 1-2.057 2.059z" fill="#0b48ae"/></svg>