<svg xmlns="http://www.w3.org/2000/svg" width="22" height="22" viewBox="0 0 22 22"><path data-name="Icon awesome-save" d="M21.31 4.81L17.19.69A2.357 2.357 0 0 0 15.523 0H2.357A2.357 2.357 0 0 0 0 2.357v17.286A2.357 2.357 0 0 0 2.357 22h17.286A2.357 2.357 0 0 0 22 19.643V6.476a2.357 2.357 0 0 0-.69-1.667zM11 18.857a3.143 3.143 0 1 1 3.143-3.143A3.143 3.143 0 0 1 11 18.857zm4.714-14.954v4.936a.589.589 0 0 1-.589.589H3.732a.589.589 0 0 1-.589-.589V3.732a.589.589 0 0 1 .589-.589h11.222a.589.589 0 0 1 .417.173l.171.171a.589.589 0 0 1 .173.417z" fill="#fff"/></svg>