<svg xmlns="http://www.w3.org/2000/svg" width="27.662" height="27.662" viewBox="0 0 27.662 27.662"><path data-name="Icon awesome-download" d="M11.67 0h4.322a1.294 1.294 0 0 1 1.3 1.3v9.077h4.738a1.079 1.079 0 0 1 .762 1.842l-8.218 8.223a1.047 1.047 0 0 1-1.475 0l-8.231-8.226a1.079 1.079 0 0 1 .762-1.842h4.744V1.3A1.294 1.294 0 0 1 11.67 0zm15.992 20.314v6.051a1.294 1.294 0 0 1-1.3 1.3H1.3a1.294 1.294 0 0 1-1.3-1.3v-6.051a1.294 1.294 0 0 1 1.3-1.3h7.923l2.647 2.647a2.768 2.768 0 0 0 3.922 0l2.647-2.647h7.926a1.294 1.294 0 0 1 1.297 1.3zm-6.7 4.754a1.081 1.081 0 1 0-1.081 1.081 1.084 1.084 0 0 0 1.082-1.08zm3.458 0a1.081 1.081 0 1 0-1.081 1.081 1.084 1.084 0 0 0 1.081-1.08z" fill="#3eb755"/></svg>