<svg xmlns="http://www.w3.org/2000/svg" width="23" height="30.667" viewBox="0 0 23 30.667"><path data-name="Icon awesome-file-pdf" d="M10.9 15.339a5.779 5.779 0 0 1-.12-2.809c.498 0 .45 2.21.12 2.809zm-.1 2.827a27.638 27.638 0 0 1-1.7 3.755 22.055 22.055 0 0 1 3.76-1.311 7.759 7.759 0 0 1-2.067-2.444zm-5.643 7.475c0 .048.791-.323 2.09-2.408a8.278 8.278 0 0 0-2.09 2.408zm9.7-16.058H23v19.646a1.434 1.434 0 0 1-1.437 1.438H1.438A1.434 1.434 0 0 1 0 29.229V1.438A1.434 1.434 0 0 1 1.438 0h11.979v8.146a1.442 1.442 0 0 0 1.437 1.437zm-.479 10.29a6.012 6.012 0 0 1-2.558-3.222 8.609 8.609 0 0 0 .371-3.845 1.5 1.5 0 0 0-2.865-.406c-.3 1.1-.024 2.641.485 4.612a56.244 56.244 0 0 1-2.444 5.139c-.006 0-.006.006-.012.006-1.623.833-4.408 2.665-3.264 4.073a1.861 1.861 0 0 0 1.288.6c1.072 0 2.138-1.078 3.66-3.7a34.141 34.141 0 0 1 4.732-1.39A9.077 9.077 0 0 0 17.6 22.9a1.55 1.55 0 0 0 1.18-2.6c-.833-.815-3.252-.581-4.408-.431zm8.203-13.584l-5.87-5.87A1.436 1.436 0 0 0 15.693 0h-.359v7.667H23V7.3a1.433 1.433 0 0 0-.419-1.011zM18.142 21.58c.246-.162-.15-.713-2.564-.539 2.222.947 2.564.539 2.564.539z" fill="#d96363"/></svg>