<svg xmlns="http://www.w3.org/2000/svg" width="15.27" height="27" viewBox="0 0 15.27 27"><path data-name="Icon material-attach-money" d="M8.22 11.85c-3.4-.885-4.5-1.8-4.5-3.225 0-1.635 1.515-2.775 4.05-2.775 2.67 0 3.66 1.275 3.75 3.15h3.315a5.979 5.979 0 0 0-4.815-5.715V0h-4.5v3.24C2.61 3.87.27 5.76.27 8.655c0 3.465 2.865 5.19 7.05 6.2 3.75.9 4.5 2.22 4.5 3.615 0 1.035-.735 2.685-4.05 2.685-3.09 0-4.305-1.38-4.47-3.15H0c.18 3.285 2.64 5.13 5.52 5.745V27h4.5v-3.225c2.925-.555 5.25-2.25 5.25-5.325 0-4.26-3.65-5.715-7.05-6.6z" fill="#3eb755"/></svg>