<svg xmlns="http://www.w3.org/2000/svg" width="14.179" height="15.124" viewBox="0 0 14.179 15.124"><path data-name="Icon awesome-star-of-life" d="M13.943 9.879L9.927 7.562l4.015-2.317a.473.473 0 0 0 .173-.646l-.945-1.637a.473.473 0 0 0-.646-.173L8.508 5.106V.473A.473.473 0 0 0 8.036 0H6.144a.473.473 0 0 0-.473.473v4.633L1.656 2.789a.473.473 0 0 0-.646.173L.064 4.6a.473.473 0 0 0 .173.646l4.015 2.316L.237 9.879a.473.473 0 0 0-.173.646l.946 1.637a.473.473 0 0 0 .646.173l4.015-2.317v4.633a.473.473 0 0 0 .473.473h1.892a.473.473 0 0 0 .473-.473v-4.633l4.015 2.317a.473.473 0 0 0 .646-.173l.946-1.637a.472.472 0 0 0-.173-.646z" fill="#d96363"/></svg>