<svg xmlns="http://www.w3.org/2000/svg" width="27.259" height="21.805" viewBox="0 0 27.259 21.805"><path data-name="Icon awesome-hands-helping" d="M20.786 8.176h-6.474v2.385a3.067 3.067 0 1 1-6.133 0V5.382L5.415 7.043A2.72 2.72 0 0 0 4.09 9.377v2.015L.683 13.36a1.36 1.36 0 0 0-.5 1.861l3.407 5.9a1.363 1.363 0 0 0 1.861.5l4.4-2.543h5.818a2.728 2.728 0 0 0 2.733-2.724h.681a1.361 1.361 0 0 0 1.363-1.363v-2.726h.341a1.02 1.02 0 0 0 1.022-1.022V9.198a1.02 1.02 0 0 0-1.023-1.022zm6.291-1.593L23.67.68a1.363 1.363 0 0 0-1.861-.5l-4.407 2.544h-4.351a2.746 2.746 0 0 0-1.444.413l-1.427.89a1.354 1.354 0 0 0-.638 1.155v5.379a1.704 1.704 0 1 0 3.407 0V6.813h7.837a2.387 2.387 0 0 1 2.385 2.385v1.214l3.407-1.968a1.364 1.364 0 0 0 .5-1.861z" fill="#0b48ae"/></svg>