<svg xmlns="http://www.w3.org/2000/svg" width="24.162" height="18.122" viewBox="0 0 24.162 18.122"><path data-name="Icon awesome-chart-bar" d="M15.705 12.081h1.812a.65.65 0 0 0 .6-.6V5.134a.65.65 0 0 0-.6-.6h-1.812a.65.65 0 0 0-.6.6v6.343a.65.65 0 0 0 .6.604zm4.53 0h1.812a.65.65 0 0 0 .6-.6V.6a.65.65 0 0 0-.6-.6h-1.811a.65.65 0 0 0-.6.6v10.877a.65.65 0 0 0 .6.604zm-13.591 0h1.813a.65.65 0 0 0 .6-.6V8.155a.65.65 0 0 0-.6-.6H6.645a.65.65 0 0 0-.6.6v3.322a.65.65 0 0 0 .6.6zm4.53 0h1.812a.65.65 0 0 0 .6-.6V2.114a.65.65 0 0 0-.6-.6h-1.811a.65.65 0 0 0-.6.6v9.363a.65.65 0 0 0 .6.604zM23.407 15.1H3.02V.755A.755.755 0 0 0 2.265 0H.755A.755.755 0 0 0 0 .755v15.856a1.51 1.51 0 0 0 1.51 1.51h21.9a.755.755 0 0 0 .755-.755v-1.51a.755.755 0 0 0-.758-.756z" fill="#0b48ae"/></svg>