<svg xmlns="http://www.w3.org/2000/svg" width="19.646" height="22.453" viewBox="0 0 19.646 22.453"><path data-name="Icon awesome-database" d="M19.646 3.208v2c0 1.767-4.4 3.208-9.823 3.208S0 6.979 0 5.212v-2C0 1.441 4.4 0 9.823 0s9.823 1.441 9.823 3.208zm0 4.511v4.511c0 1.767-4.4 3.208-9.823 3.208S0 14 0 12.229V7.718c2.11 1.453 5.973 2.13 9.823 2.13s7.713-.676 9.823-2.13zm0 7.017v4.511c0 1.767-4.4 3.208-9.823 3.208S0 21.012 0 19.246v-4.511c2.11 1.453 5.973 2.13 9.823 2.13s7.713-.677 9.823-2.13z" fill="#0b48ae"/></svg>