<svg xmlns="http://www.w3.org/2000/svg" width="20" height="19" viewBox="0 0 20 19"><path data-name="Path 137" d="M9.23 4.791V.782a.768.768 0 0 1 1.53-.105l.01.105v4.009h4.78A4.531 4.531 0 0 1 20 9.17v5.255a4.532 4.532 0 0 1-4.23 4.57l-.21.005H4.44A4.516 4.516 0 0 1 0 14.621V9.376a4.533 4.533 0 0 1 4.22-4.58l.21-.005h4.8v6.4l-1.6-1.652a.755.755 0 0 0-1.09 0 .809.809 0 0 0-.22.568.78.78 0 0 0 .14.459l.08.1 2.91 3.015a.735.735 0 0 0 .55.237.755.755 0 0 0 .47-.166l.07-.071 2.91-3.015a.817.817 0 0 0 0-1.126.75.75 0 0 0-1-.077l-.09.077-1.59 1.652v-6.4z" fill="#0b48ae"/></svg>