<svg xmlns="http://www.w3.org/2000/svg" width="20.003" height="18" viewBox="0 0 20.003 18"><path data-name="Path 1333" d="M12.479 1.442l7.27 12.615a2.929 2.929 0 0 1 .25 1 2.757 2.757 0 0 1-.73 2.021 2.839 2.839 0 0 1-1.95.921H2.679a3.153 3.153 0 0 1-.91-.2 2.8 2.8 0 0 1-1.56-3.656L7.529 1.43a2.73 2.73 0 0 1 1.1-1.08 2.851 2.851 0 0 1 3.85 1.092zm-1.61 8.314a.875.875 0 0 1-1.75 0v-2.8a.875.875 0 0 1 1.75 0zm-.87 4.262a.873.873 0 1 1 0-1.745.867.867 0 0 1 .87.862.879.879 0 0 1-.87.883z" fill="#0b48ae" fill-rule="evenodd"/></svg>