<svg xmlns="http://www.w3.org/2000/svg" width="26.964" height="21.571" viewBox="0 0 26.964 21.571"><path data-name="Icon awesome-photo-video" d="M25.616 0H6.741a1.348 1.348 0 0 0-1.348 1.348v4.045h6.741V2.7h8.089v13.478h5.393a1.348 1.348 0 0 0 1.348-1.348V1.348A1.348 1.348 0 0 0 25.616 0zM9.774 4.34a.379.379 0 0 1-.379.379H8.131a.379.379 0 0 1-.379-.379V3.076a.379.379 0 0 1 .379-.376H9.4a.379.379 0 0 1 .379.379zM24.6 13.1a.379.379 0 0 1-.379.379h-1.26a.379.379 0 0 1-.379-.379v-1.261a.379.379 0 0 1 .379-.379h1.264a.379.379 0 0 1 .379.379zm0-4.382a.379.379 0 0 1-.379.379h-1.26a.379.379 0 0 1-.379-.379V7.457a.379.379 0 0 1 .379-.379h1.264a.379.379 0 0 1 .379.379zm0-4.382a.379.379 0 0 1-.379.379h-1.26a.379.379 0 0 1-.379-.379v-1.26a.379.379 0 0 1 .379-.379h1.264a.379.379 0 0 1 .379.379zm-7.078 2.4H1.348A1.348 1.348 0 0 0 0 8.089v12.134a1.348 1.348 0 0 0 1.348 1.348h16.179a1.348 1.348 0 0 0 1.348-1.348V8.089a1.348 1.348 0 0 0-1.348-1.348zM4.045 9.437A1.348 1.348 0 1 1 2.7 10.786a1.348 1.348 0 0 1 1.345-1.349zm12.134 9.437H2.7v-1.347l2.7-2.7 1.348 1.348 5.393-5.393 4.045 4.045z" fill="#0b48ae"/></svg>