<svg xmlns="http://www.w3.org/2000/svg" width="17" height="20" viewBox="0 0 17 20"><path data-name="Path 1321" d="M8.653 14.64l2.842-2.87a.751.751 0 0 0-.01-1.06.729.729 0 0 0-1.039 0l-1.575 1.6V7.49a.736.736 0 0 0-.732-.75.746.746 0 0 0-.743.75v4.82l-1.574-1.6a.73.73 0 0 0-1.04 0 .76.76 0 0 0 0 1.06l2.832 2.87a.763.763 0 0 0 .237.16.711.711 0 0 0 .288.06.658.658 0 0 0 .277-.06.763.763 0 0 0 .237-.16zm7.175-7.614c.233 0 .486-.006.717-.006a.448.448 0 0 1 .455.45v8.04A4.476 4.476 0 0 1 12.545 20H4.673A4.69 4.69 0 0 1 0 15.29V4.51A4.489 4.489 0 0 1 4.465 0h5.287a.463.463 0 0 1 .456.46v3.22a3.342 3.342 0 0 0 3.307 3.34c.418 0 .793 0 1.12.006h.672c.141.004.324.002.521 0zm.276-1.46c-.812 0-1.772 0-2.462-.007a2.017 2.017 0 0 1-2-2.017V.906a.472.472 0 0 1 .813-.334l2.916 3.062 1.071 1.125a.477.477 0 0 1-.342.807z" fill="#0b48ae" fill-rule="evenodd"/></svg>