<svg xmlns="http://www.w3.org/2000/svg" width="21.999" height="22" viewBox="0 0 21.999 22"><path data-name="Icon awesome-pencil-alt" d="M21.398 6.103l-1.985 1.981a.516.516 0 0 1-.73 0l-4.77-4.77a.516.516 0 0 1 0-.73L15.898.603a2.067 2.067 0 0 1 2.918 0l2.582 2.582a2.059 2.059 0 0 1 0 2.918zm-9.187-1.818L.927 15.57l-.911 5.225a1.033 1.033 0 0 0 1.194 1.19l5.221-.915L17.715 9.786a.516.516 0 0 0 0-.73l-4.77-4.77a.521.521 0 0 0-.735 0zm-6.88 10.318a.6.6 0 0 1 0-.851l6.617-6.617a.602.602 0 0 1 .851.851l-6.617 6.617a.6.6 0 0 1-.851 0zM3.78 18.216h2.063v1.56l-2.772.486-1.336-1.337.486-2.772h1.56z" fill="#fff"/></svg>