<svg xmlns="http://www.w3.org/2000/svg" width="20" height="20" viewBox="0 0 20 20"><path data-name="Path 1285" d="M5.67 0h8.67C17.73 0 20 2.38 20 5.92v8.171C20 17.621 17.73 20 14.34 20H5.67C2.28 20 0 17.621 0 14.091V5.92C0 2.379 2.28 0 5.67 0zm7.34 13a.868.868 0 0 0 0-1.229l-1.78-1.78 1.78-1.781a.876.876 0 0 0-1.24-1.239L10 8.75 8.22 6.971A.876.876 0 1 0 6.98 8.21l1.78 1.781-1.78 1.77A.876.876 0 1 0 8.22 13L10 11.231 11.78 13a.823.823 0 0 0 .61.261.872.872 0 0 0 .62-.261z" fill="#130f26" fill-rule="evenodd"/></svg>