<svg xmlns="http://www.w3.org/2000/svg" width="20" height="20" viewBox="0 0 20 20"><path data-name="Path 1382" d="M5.33 0h9.339c3.4 0 5.321 1.929 5.331 5.33v9.34c0 3.4-1.93 5.33-5.331 5.33H5.33C1.93 20 0 18.07 0 14.67V5.33C0 1.929 1.929 0 5.33 0zm4.719 15.86a.827.827 0 0 0 .83-.75V4.92a.815.815 0 0 0-.379-.79.84.84 0 0 0-1.281.79v10.19a.843.843 0 0 0 .83.75zm4.6 0a.843.843 0 0 0 .83-.75v-3.28a.839.839 0 0 0-1.28-.79.806.806 0 0 0-.38.79v3.28a.827.827 0 0 0 .831.75zm-8.431-.75a.834.834 0 0 1-1.659 0V8.2a.841.841 0 0 1 .39-.79.823.823 0 0 1 .88 0 .842.842 0 0 1 .389.79z" fill="#0b48ae" fill-rule="evenodd"/></svg>