<svg xmlns="http://www.w3.org/2000/svg" width="17" height="20" viewBox="0 0 17 20"><path data-name="Path 1347" d="M10.446 10.89a.729.729 0 0 0 1.039 0 .739.739 0 0 0 .01-1.05L8.653 6.96a.763.763 0 0 0-.237-.16.657.657 0 0 0-.277-.06.711.711 0 0 0-.288.06.762.762 0 0 0-.237.16L4.782 9.84a.748.748 0 0 0 0 1.05.73.73 0 0 0 1.04 0l1.574-1.6v4.83a.738.738 0 1 0 1.475 0V9.29zm5.382-3.864c.233 0 .486-.006.717-.006a.454.454 0 0 1 .455.45v8.04A4.476 4.476 0 0 1 12.545 20H4.673A4.69 4.69 0 0 1 0 15.29V4.51A4.489 4.489 0 0 1 4.465 0h5.287a.463.463 0 0 1 .456.46v3.22a3.342 3.342 0 0 0 3.307 3.34c.416 0 .786 0 1.111.006h.681c.141.004.324.002.521 0zm.277-1.46c-.814 0-1.773 0-2.463-.007a2.017 2.017 0 0 1-2-2.017V.906a.472.472 0 0 1 .813-.334l2.916 3.061 1.071 1.126a.477.477 0 0 1-.342.807z" fill="#0b48ae" fill-rule="evenodd"/></svg>