<svg xmlns="http://www.w3.org/2000/svg" width="18" height="20" viewBox="0 0 18 20"><path data-name="Path 1341" d="M17.287 3.243a.723.723 0 0 1 .713.734v.38a.73.73 0 0 1-.713.734H.714A.73.73 0 0 1 0 4.357v-.38a.723.723 0 0 1 .714-.734H3.63a1.283 1.283 0 0 0 1.241-1.015l.152-.682A1.988 1.988 0 0 1 6.935 0h4.13a1.986 1.986 0 0 1 1.9 1.5l.163.73a1.281 1.281 0 0 0 1.241 1.016zm-1.481 13.891c.3-2.837.837-9.577.837-9.645a.74.74 0 0 0-.181-.558.726.726 0 0 0-.523-.234H2.069a.708.708 0 0 0-.524.234.79.79 0 0 0-.19.558c0 .013.021.25.053.647.142 1.763.537 6.674.793 9a2.917 2.917 0 0 0 2.931 2.827c1.256.029 2.549.039 3.872.039 1.246 0 2.511-.01 3.805-.039a2.918 2.918 0 0 0 2.997-2.829z" fill="#fa4e41" fill-rule="evenodd"/></svg>