<svg xmlns="http://www.w3.org/2000/svg" width="20" height="18" viewBox="0 0 20 18"><path data-name="Path 1345" d="M15.769 5.382H20C20 1.982 17.964 0 14.516 0H5.484C2.036 0 0 1.985 0 5.338v7.324C0 16.015 2.036 18 5.484 18h9.032C17.964 18 20 16.015 20 12.662v-.312h-4.231a3.468 3.468 0 1 1 0-6.934zm0 1.49h3.484A.737.737 0 0 1 20 7.6v2.531a.747.747 0 0 1-.747.728h-3.4a2.106 2.106 0 0 1-2.089-1.595 1.984 1.984 0 0 1 .433-1.652 2.1 2.1 0 0 1 1.572-.74zm.151 2.661h.329a.746.746 0 1 0 0-1.491h-.329a.77.77 0 0 0-.54.213.725.725 0 0 0-.224.524.763.763 0 0 0 .764.754zM4.738 5.382h5.644a.746.746 0 1 0 0-1.491H4.738a.756.756 0 0 0-.765.737.764.764 0 0 0 .765.754z" fill="#0b48ae" fill-rule="evenodd"/></svg>