<svg xmlns="http://www.w3.org/2000/svg" width="25.135" height="25.135" viewBox="0 0 25.135 25.135"><g data-name="Group 192"><g data-name="Group 191" fill="#707782"><path data-name="Path 129" d="M12.567 4.522a2.011 2.011 0 1 0 2.011 2.011 2.013 2.013 0 0 0-2.011-2.011z"/><path data-name="Path 130" d="M14.076 9.551h-4.025a.5.5 0 0 0-.5.5v2.011a.5.5 0 0 0 .5.5h.5v7.542a.5.5 0 0 0 .5.5h3.017a.5.5 0 0 0 .5-.5V10.051a.5.5 0 0 0-.492-.5zm-.5 10.056c-2.011-7.82-2.236-8.045 0 0z"/><path data-name="Path 131" d="M12.567.5a12.067 12.067 0 1 0 12.068 12.067A12.081 12.081 0 0 0 12.567.5zm0 23.129a11.062 11.062 0 1 1 11.062-11.062 11.074 11.074 0 0 1-11.062 11.062z" stroke="#707782"/></g></g></svg>