<svg xmlns="http://www.w3.org/2000/svg" width="23.597" height="19.911" viewBox="0 0 23.597 19.911"><path data-name="Icon awesome-tasks" d="M6.434.163a.553.553 0 0 0-.783 0L2.716 3.08 1.67 2.061a.553.553 0 0 0-.783 0l-.724.724a.553.553 0 0 0 0 .783l2.193 2.184a.589.589 0 0 0 .812 0l.718-.72 3.328-3.325a.557.557 0 0 0 0-.783zm0 7.337a.553.553 0 0 0-.783 0l-2.935 2.936L1.67 9.417a.553.553 0 0 0-.783 0l-.724.723a.553.553 0 0 0 0 .783l2.187 2.19a.589.589 0 0 0 .811 0l.724-.723 3.328-3.328a.553.553 0 0 0 0-.779zM2.95 15.487a2.212 2.212 0 1 0 0 4.424 2.212 2.212 0 1 0 0-4.424zm19.91.737H9.586a.737.737 0 0 0-.737.737v1.475a.737.737 0 0 0 .737.737h13.273a.737.737 0 0 0 .737-.737v-1.475a.737.737 0 0 0-.737-.737zm0-14.748H9.586a.737.737 0 0 0-.737.737v1.475a.737.737 0 0 0 .737.737h13.273a.737.737 0 0 0 .737-.737V2.213a.737.737 0 0 0-.737-.737zm0 7.374H9.586a.737.737 0 0 0-.737.737v1.475a.737.737 0 0 0 .737.737h13.273a.737.737 0 0 0 .737-.737V9.587a.737.737 0 0 0-.737-.735z" fill="#0b48ae"/></svg>