<svg xmlns="http://www.w3.org/2000/svg" width="17" height="20" viewBox="0 0 17 20"><path data-name="Path 1323" d="M5.426 14.39h5.386a.751.751 0 0 0 .742-.75.743.743 0 0 0-.742-.74H5.426a.743.743 0 0 0-.743.74.752.752 0 0 0 .743.75zM8.772 7.9H5.426a.752.752 0 0 0-.743.75.743.743 0 0 0 .743.74h3.346a.743.743 0 0 0 .743-.74.752.752 0 0 0-.743-.75zm7.066-.874c.233 0 .486-.006.716-.006a.446.446 0 0 1 .446.45v8.04A4.468 4.468 0 0 1 12.554 20H4.673A4.7 4.7 0 0 1 0 15.29V4.51A4.5 4.5 0 0 1 4.465 0h5.287a.457.457 0 0 1 .456.46v3.22a3.349 3.349 0 0 0 3.307 3.34c.423 0 .8 0 1.123.006h.679c.141.004.323.002.521 0zm.273-1.46c-.814 0-1.773 0-2.463-.007a2.017 2.017 0 0 1-2-2.017V.906a.473.473 0 0 1 .814-.334c.535.563 1.272 1.336 2 2.106l1.981 2.081a.477.477 0 0 1-.332.807z" fill="#0b48ae" fill-rule="evenodd"/></svg>