<svg xmlns="http://www.w3.org/2000/svg" width="18.849" height="21.541" viewBox="0 0 18.849 21.541"><path data-name="Icon awesome-calendar-alt" d="M0 19.521a2.02 2.02 0 0 0 2.019 2.019h14.81a2.02 2.02 0 0 0 2.019-2.019V8.078H0zm13.463-8.246a.506.506 0 0 1 .5-.5h1.683a.506.506 0 0 1 .5.5v1.683a.506.506 0 0 1-.5.5h-1.678a.506.506 0 0 1-.5-.5zm0 5.385a.506.506 0 0 1 .5-.5h1.683a.506.506 0 0 1 .5.5v1.683a.506.506 0 0 1-.5.5h-1.678a.506.506 0 0 1-.5-.5zm-5.385-5.385a.506.506 0 0 1 .5-.5h1.683a.506.506 0 0 1 .5.5v1.683a.506.506 0 0 1-.5.5H8.583a.506.506 0 0 1-.5-.5zm0 5.385a.506.506 0 0 1 .5-.5h1.683a.506.506 0 0 1 .5.5v1.683a.506.506 0 0 1-.5.5H8.583a.506.506 0 0 1-.5-.5zm-5.385-5.385a.506.506 0 0 1 .5-.5H4.88a.506.506 0 0 1 .5.5v1.683a.506.506 0 0 1-.5.5H3.2a.506.506 0 0 1-.5-.5zm0 5.385a.506.506 0 0 1 .5-.5H4.88a.506.506 0 0 1 .5.5v1.683a.506.506 0 0 1-.5.5H3.2a.506.506 0 0 1-.5-.5zM16.829 2.693h-2.02V.673A.675.675 0 0 0 14.136 0H12.79a.675.675 0 0 0-.673.673v2.02H6.732V.673A.675.675 0 0 0 6.058 0H4.712a.675.675 0 0 0-.673.673v2.02h-2.02A2.02 2.02 0 0 0 0 4.712v2.02h18.848v-2.02a2.02 2.02 0 0 0-2.019-2.019z" fill="#0b48ae"/></svg>