<svg xmlns="http://www.w3.org/2000/svg" width="18" height="20" viewBox="0 0 18 20"><path data-name="Path 132" d="M4.81 0h8.381C16.28 0 18 1.78 18 4.83v10.33c0 3.1-1.72 4.84-4.809 4.84H4.81C1.77 20 0 18.26 0 15.16V4.83C0 1.78 1.77 0 4.81 0zm.27 4.66v-.01h2.989a.785.785 0 0 1 0 1.57H5.08a.78.78 0 0 1 0-1.56zm0 6.08h7.84a.781.781 0 0 0 0-1.561H5.08a.781.781 0 0 0 0 1.561zm0 4.57h7.84a.79.79 0 0 0 0-1.57H5.08a.784.784 0 0 0-.75.37.8.8 0 0 0 0 .84.777.777 0 0 0 .75.36z" fill="#0b48ae" fill-rule="evenodd"/></svg>